<svg width="80" height="39" viewBox="0 0 80 39" fill="none" xmlns="http://www.w3.org/2000/svg">
<g clip-path="url(#clip0_2428_5762)">
<path d="M37.5659 38.4237C37.5659 38.7568 37.2935 38.9762 37.0236 38.9762H32.7369C32.4644 38.9762 32.249 38.7542 32.249 38.4237V0.552498C32.249 0.222057 32.467 0 32.7369 0H37.0236C37.2935 0 37.5659 0.222057 37.5659 0.552498V38.4237Z" fill="black"/>
<path d="M46.5103 38.4422C46.5103 38.7753 46.2378 38.9947 45.9679 38.9947H41.6812C41.4087 38.9947 41.1934 38.7727 41.1934 38.4422V0.552498C41.1934 0.222057 41.4087 0 41.6812 0H45.9679C46.2378 0 46.5103 0.222057 46.5103 0.552498V38.4422Z" fill="black"/>
<path d="M79.0842 30.0516C79.0842 30.3583 78.8558 30.6332 78.5107 30.6332H74.8986C74.4056 30.6332 74.3252 30.3054 74.3252 30.0464C74.0968 22.6815 73.4092 0.581577 73.4092 0.581577C73.4092 0.290788 73.6401 0 73.9826 0H79.4293C79.7147 0 80.0028 0.290788 80.0028 0.581577L79.0868 30.0516H79.0842Z" fill="black"/>
<path d="M28.1388 0H23.8573C23.5848 0 23.3149 0.222057 23.3149 0.552498V7.45211C23.3149 9.17569 22.3237 10.7512 20.7719 11.4359C17.4583 12.8978 14.3081 10.4076 14.3081 7.21948V0.552498C14.3081 0.222057 14.0356 0 13.7658 0H9.48683C9.21437 0 8.99121 0.227344 8.99121 0.504914V7.38602C8.99121 11.658 11.6873 15.4805 15.6938 16.7388C22.4482 18.8616 28.637 13.7807 28.637 7.21948V0.504914C28.6344 0.2247 28.4113 0 28.1388 0Z" fill="black"/>
<path d="M18.7947 33.5147H5.8229C5.58417 33.5147 5.39215 33.3191 5.39215 33.0758V24.8677C5.39215 24.5743 5.62569 24.3363 5.91372 24.3363H18.8284C21.4103 24.3363 23.5251 26.5225 23.3798 29.1846C23.2449 31.6298 21.1975 33.5147 18.7947 33.5147ZM18.7013 18.9197H9.8216C8.37107 18.9197 7.42653 18.962 5.89037 18.9726C5.61531 18.9726 5.39215 18.7479 5.39215 18.4677L5.37918 0.560428C5.37918 0.2247 5.10412 0 4.83166 0H0.493026C0.220564 0 0 0.2247 0 0.560428V38.4369C0 38.7727 0.220564 38.9947 0.493026 38.9947C0.493026 38.9947 12.4009 39.0079 16.3685 38.9947C16.9705 38.9947 18.7817 38.9789 18.7817 38.9789C24.2309 38.9789 28.6838 34.4188 28.65 28.8594C28.6163 23.3371 24.1194 18.9171 18.6987 18.9171" fill="black"/>
<path d="M55.4546 28.3281C56.0384 28.6347 56.656 28.8859 57.3021 29.0683V38.4422C57.3021 38.7753 57.5201 38.9947 57.79 38.9947H62.0767C62.3466 38.9947 62.619 38.7727 62.619 38.4422V29.0683C63.26 28.8859 63.8724 28.64 64.451 28.3334C67.4844 26.742 69.5993 23.5882 69.7705 19.9137V0.552498C69.7705 0.30665 69.6226 0.124246 69.4358 0.04494C69.3683 0.0158612 69.2983 0 69.2282 0H64.9415C64.669 0 64.4536 0.222057 64.4536 0.552498V19.9957C64.355 21.3148 63.6778 22.5149 62.6216 23.2551C62.4037 23.4085 62.1701 23.5433 61.9236 23.6517C60.198 24.413 58.5191 24.1011 57.3047 23.1785C56.1838 22.3299 55.4598 20.9632 55.4598 19.4352V0.597438C55.4598 0.597438 55.4598 0.581577 55.4598 0.573646V0.555141C55.4546 0.222057 55.1847 0 54.9123 0H50.6255C50.5555 0 50.488 0.0158612 50.4257 0.04494C50.2597 0.121602 50.1429 0.298719 50.1377 0.533993V19.4379C50.1377 23.3106 52.2966 26.6653 55.4546 28.3281Z" fill="black"/>
<path d="M79.2836 36.3542C79.2836 37.8055 78.1289 38.9819 76.7043 38.9819C75.2797 38.9819 74.125 37.8055 74.125 36.3542C74.125 34.9029 75.2797 33.7266 76.7043 33.7266C78.1289 33.7266 79.2836 34.9029 79.2836 36.3542Z" fill="black"/>
</g>
<defs>
<clipPath id="clip0_2428_5762">
<rect width="80" height="39" fill="white"/>
</clipPath>
</defs>
</svg>
